{
    "asset" : {
        "generator" : "Khronos glTF Blender I/O v1.4.40",
        "version" : "2.0"
    },
    "scene" : 0,
    "scenes" : [
        {
            "name" : "Scene",
            "nodes" : [
                12
            ]
        }
    ],
    "nodes" : [
        {
            "mesh" : 0,
            "name" : "Body",
            "translation" : [
                -3.7763566970825195,
                -0.11971404403448105,
                4.09893274307251
            ]
        },
        {
            "mesh" : 1,
            "name" : "Mesh_5",
            "translation" : [
                40.66112518310547,
                -0.5345933437347412,
                -21.644163131713867
            ]
        },
        {
            "mesh" : 2,
            "name" : "Mesh_8",
            "translation" : [
                108.11663818359375,
                -109.71446990966797,
                -31.906339645385742
            ]
        },
        {
            "mesh" : 3,
            "name" : "Mesh_8.001",
            "rotation" : [
                0,
                0,
                0.7071068286895752,
                0.7071068286895752
            ],
            "translation" : [
                108.77899932861328,
                109.4749984741211,
                -32.00189971923828
            ]
        },
        {
            "mesh" : 4,
            "name" : "Mesh_9",
            "translation" : [
                -105.90399169921875,
                -116.07868194580078,
                -30.068119049072266
            ]
        },
        {
            "mesh" : 5,
            "name" : "Mesh_9.001",
            "rotation" : [
                0,
                0,
                -0.7071068286895752,
                0.7071068286895752
            ],
            "translation" : [
                -105.95500183105469,
                116.08200073242188,
                -29.760799407958984
            ]
        },
        {
            "mesh" : 6,
            "name" : "PropellerBL",
            "scale" : [
                -1,
                1,
                1
            ],
            "translation" : [
                -103.93000030517578,
                113.93000030517578,
                11.304200172424316
            ]
        },
        {
            "mesh" : 7,
            "name" : "PropellerBR",
            "translation" : [
                -103.13152313232422,
                -114.05073547363281,
                11.173624038696289
            ]
        },
        {
            "mesh" : 8,
            "name" : "PropellerFL",
            "translation" : [
                105.9747085571289,
                106.64486694335938,
                9.00189208984375
            ]
        },
        {
            "mesh" : 9,
            "name" : "PropellerFR",
            "scale" : [
                1,
                -1,
                1
            ],
            "translation" : [
                105.67658233642578,
                -107.0098648071289,
                9.115175247192383
            ]
        },
        {
            "children" : [
                0,
                1,
                2,
                3,
                4,
                5,
                6,
                7,
                8,
                9
            ],
            "name" : "currentmodel.wrl.cleaner.materialmerger.gles",
            "rotation" : [
                0.7071068286895752,
                0,
                0,
                0.7071068286895752
            ]
        },
        {
            "children" : [
                10
            ],
            "name" : "RootNode (model correction matrix)",
            "rotation" : [
                -0.5,
                0.5,
                -0.5,
                0.5
            ],
            "translation" : [
                -0.002685546875,
                -9.268685340881348,
                -9.265999794006348
            ]
        },
        {
            "children" : [
                11
            ],
            "name" : "RootNode (gltf orientation matrix)",
            "rotation" : [
                -0.7071068286895752,
                0,
                0,
                0.7071068286895752
            ],
            "scale" : [
                0.01054918859153986,
                0.01054918859153986,
                0.01054918859153986
            ],
            "translation" : [
                0,
                0.2969169020652771,
                0
            ]
        }
    ],
    "materials" : [
        {
            "doubleSided" : true,
            "name" : "material_3",
            "pbrMetallicRoughness" : {
                "baseColorFactor" : [
                    0.20862700045108795,
                    0.20862700045108795,
                    0.20862700045108795,
                    1
                ],
                "roughnessFactor" : 0.25
            }
        },
        {
            "doubleSided" : true,
            "name" : "material_5",
            "pbrMetallicRoughness" : {
                "baseColorFactor" : [
                    0,
                    0,
                    0,
                    1
                ],
                "roughnessFactor" : 0.6000000238418579
            }
        },
        {
            "doubleSided" : true,
            "name" : "material_7",
            "pbrMetallicRoughness" : {
                "baseColorFactor" : [
                    0,
                    0,
                    0,
                    1
                ],
                "roughnessFactor" : 0.6000000238418579
            }
        },
        {
            "doubleSided" : true,
            "name" : "material_6",
            "pbrMetallicRoughness" : {
                "baseColorFactor" : [
                    0,
                    0,
                    0,
                    1
                ],
                "roughnessFactor" : 0.6000000238418579
            }
        }
    ],
    "meshes" : [
        {
            "name" : "Body",
            "primitives" : [
                {
                    "attributes" : {
                        "POSITION" : 0,
                        "NORMAL" : 1,
                        "COLOR_0" : 2
                    },
                    "indices" : 3,
                    "material" : 0
                }
            ]
        },
        {
            "name" : "Mesh_5",
            "primitives" : [
                {
                    "attributes" : {
                        "POSITION" : 4,
                        "NORMAL" : 5,
                        "COLOR_0" : 6
                    },
                    "indices" : 7,
                    "material" : 1
                }
            ]
        },
        {
            "name" : "Mesh_8",
            "primitives" : [
                {
                    "attributes" : {
                        "POSITION" : 8,
                        "NORMAL" : 9,
                        "COLOR_0" : 10
                    },
                    "indices" : 11,
                    "material" : 2
                }
            ]
        },
        {
            "name" : "Mesh_8.001",
            "primitives" : [
                {
                    "attributes" : {
                        "POSITION" : 12,
                        "NORMAL" : 13,
                        "COLOR_0" : 14
                    },
                    "indices" : 11,
                    "material" : 2
                }
            ]
        },
        {
            "name" : "Mesh_9",
            "primitives" : [
                {
                    "attributes" : {
                        "POSITION" : 15,
                        "NORMAL" : 16,
                        "COLOR_0" : 17
                    },
                    "indices" : 18,
                    "material" : 2
                }
            ]
        },
        {
            "name" : "Mesh_9.001",
            "primitives" : [
                {
                    "attributes" : {
                        "POSITION" : 19,
                        "NORMAL" : 20,
                        "COLOR_0" : 21
                    },
                    "indices" : 18,
                    "material" : 2
                }
            ]
        },
        {
            "name" : "PropellerBL",
            "primitives" : [
                {
                    "attributes" : {
                        "POSITION" : 22,
                        "NORMAL" : 23,
                        "COLOR_0" : 24
                    },
                    "indices" : 25,
                    "material" : 3
                }
            ]
        },
        {
            "name" : "PropellerBR",
            "primitives" : [
                {
                    "attributes" : {
                        "POSITION" : 26,
                        "NORMAL" : 27,
                        "COLOR_0" : 28
                    },
                    "indices" : 25,
                    "material" : 3
                }
            ]
        },
        {
            "name" : "PropellerFL",
            "primitives" : [
                {
                    "attributes" : {
                        "POSITION" : 29,
                        "NORMAL" : 30,
                        "COLOR_0" : 31
                    },
                    "indices" : 32,
                    "material" : 3
                }
            ]
        },
        {
            "name" : "PropellerFR",
            "primitives" : [
                {
                    "attributes" : {
                        "POSITION" : 33,
                        "NORMAL" : 34,
                        "COLOR_0" : 35
                    },
                    "indices" : 36,
                    "material" : 3
                }
            ]
        }
    ],
    "accessors" : [
        {
            "bufferView" : 0,
            "componentType" : 5126,
            "count" : 12088,
            "max" : [
                213.49658203125,
                219.9130401611328,
                40.99273681640625
            ],
            "min" : [
                -205.9434356689453,
                -219.6670684814453,
                -30.652822494506836
            ],
            "type" : "VEC3"
        },
        {
            "bufferView" : 1,
            "componentType" : 5126,
            "count" : 12088,
            "type" : "VEC3"
        },
        {
            "bufferView" : 2,
            "componentType" : 5123,
            "count" : 12088,
            "normalized" : true,
            "type" : "VEC4"
        },
        {
            "bufferView" : 3,
            "componentType" : 5123,
            "count" : 38541,
            "type" : "SCALAR"
        },
        {
            "bufferView" : 4,
            "componentType" : 5126,
            "count" : 2453,
            "max" : [
                113.9529037475586,
                118.8484115600586,
                33.09027099609375
            ],
            "min" : [
                -148.58306884765625,
                -117.34765625,
                -19.909727096557617
            ],
            "type" : "VEC3"
        },
        {
            "bufferView" : 5,
            "componentType" : 5126,
            "count" : 2453,
            "type" : "VEC3"
        },
        {
            "bufferView" : 6,
            "componentType" : 5123,
            "count" : 2453,
            "normalized" : true,
            "type" : "VEC4"
        },
        {
            "bufferView" : 7,
            "componentType" : 5123,
            "count" : 6126,
            "type" : "SCALAR"
        },
        {
            "bufferView" : 8,
            "componentType" : 5126,
            "count" : 1262,
            "max" : [
                43.46830749511719,
                26.005577087402344,
                23.352449417114258
            ],
            "min" : [
                -26.1680908203125,
                -43.630836486816406,
                -50.647552490234375
            ],
            "type" : "VEC3"
        },
        {
            "bufferView" : 9,
            "componentType" : 5126,
            "count" : 1262,
            "type" : "VEC3"
        },
        {
            "bufferView" : 10,
            "componentType" : 5123,
            "count" : 1262,
            "normalized" : true,
            "type" : "VEC4"
        },
        {
            "bufferView" : 11,
            "componentType" : 5123,
            "count" : 2172,
            "type" : "SCALAR"
        },
        {
            "bufferView" : 12,
            "componentType" : 5126,
            "count" : 1262,
            "max" : [
                43.46830749511719,
                26.005577087402344,
                23.352449417114258
            ],
            "min" : [
                -26.1680908203125,
                -43.630836486816406,
                -50.647552490234375
            ],
            "type" : "VEC3"
        },
        {
            "bufferView" : 13,
            "componentType" : 5126,
            "count" : 1262,
            "type" : "VEC3"
        },
        {
            "bufferView" : 14,
            "componentType" : 5123,
            "count" : 1262,
            "normalized" : true,
            "type" : "VEC4"
        },
        {
            "bufferView" : 15,
            "componentType" : 5126,
            "count" : 1255,
            "max" : [
                26.344345092773438,
                26.127151489257812,
                23.51422882080078
            ],
            "min" : [
                -43.29206848144531,
                -43.50926971435547,
                -50.48576736450195
            ],
            "type" : "VEC3"
        },
        {
            "bufferView" : 16,
            "componentType" : 5126,
            "count" : 1255,
            "type" : "VEC3"
        },
        {
            "bufferView" : 17,
            "componentType" : 5123,
            "count" : 1255,
            "normalized" : true,
            "type" : "VEC4"
        },
        {
            "bufferView" : 18,
            "componentType" : 5123,
            "count" : 2172,
            "type" : "SCALAR"
        },
        {
            "bufferView" : 19,
            "componentType" : 5126,
            "count" : 1255,
            "max" : [
                26.344345092773438,
                26.127151489257812,
                23.51422882080078
            ],
            "min" : [
                -43.29206848144531,
                -43.50926971435547,
                -50.48576736450195
            ],
            "type" : "VEC3"
        },
        {
            "bufferView" : 20,
            "componentType" : 5126,
            "count" : 1255,
            "type" : "VEC3"
        },
        {
            "bufferView" : 21,
            "componentType" : 5123,
            "count" : 1255,
            "normalized" : true,
            "type" : "VEC4"
        },
        {
            "bufferView" : 22,
            "componentType" : 5126,
            "count" : 2585,
            "max" : [
                81.44480895996094,
                23.922657012939453,
                15.272485733032227
            ],
            "min" : [
                -82.39952850341797,
                -23.80746078491211,
                -23.72751235961914
            ],
            "type" : "VEC3"
        },
        {
            "bufferView" : 23,
            "componentType" : 5126,
            "count" : 2585,
            "type" : "VEC3"
        },
        {
            "bufferView" : 24,
            "componentType" : 5123,
            "count" : 2585,
            "normalized" : true,
            "type" : "VEC4"
        },
        {
            "bufferView" : 25,
            "componentType" : 5123,
            "count" : 7476,
            "type" : "SCALAR"
        },
        {
            "bufferView" : 26,
            "componentType" : 5126,
            "count" : 2585,
            "max" : [
                81.44480895996094,
                23.922657012939453,
                15.272485733032227
            ],
            "min" : [
                -82.39952850341797,
                -23.80746078491211,
                -23.72751235961914
            ],
            "type" : "VEC3"
        },
        {
            "bufferView" : 27,
            "componentType" : 5126,
            "count" : 2585,
            "type" : "VEC3"
        },
        {
            "bufferView" : 28,
            "componentType" : 5123,
            "count" : 2585,
            "normalized" : true,
            "type" : "VEC4"
        },
        {
            "bufferView" : 29,
            "componentType" : 5126,
            "count" : 2529,
            "max" : [
                43.521751403808594,
                72.47775268554688,
                15.444217681884766
            ],
            "min" : [
                -42.59230041503906,
                -71.1753158569336,
                -23.555782318115234
            ],
            "type" : "VEC3"
        },
        {
            "bufferView" : 30,
            "componentType" : 5126,
            "count" : 2529,
            "type" : "VEC3"
        },
        {
            "bufferView" : 31,
            "componentType" : 5123,
            "count" : 2529,
            "normalized" : true,
            "type" : "VEC4"
        },
        {
            "bufferView" : 32,
            "componentType" : 5123,
            "count" : 7272,
            "type" : "SCALAR"
        },
        {
            "bufferView" : 33,
            "componentType" : 5126,
            "count" : 2516,
            "max" : [
                48.125938415527344,
                67.66727447509766,
                15.330934524536133
            ],
            "min" : [
                -47.50172424316406,
                -68.8228988647461,
                -23.669065475463867
            ],
            "type" : "VEC3"
        },
        {
            "bufferView" : 34,
            "componentType" : 5126,
            "count" : 2516,
            "type" : "VEC3"
        },
        {
            "bufferView" : 35,
            "componentType" : 5123,
            "count" : 2516,
            "normalized" : true,
            "type" : "VEC4"
        },
        {
            "bufferView" : 36,
            "componentType" : 5123,
            "count" : 7242,
            "type" : "SCALAR"
        }
    ],
    "bufferViews" : [
        {
            "buffer" : 0,
            "byteLength" : 145056,
            "byteOffset" : 0
        },
        {
            "buffer" : 0,
            "byteLength" : 145056,
            "byteOffset" : 145056
        },
        {
            "buffer" : 0,
            "byteLength" : 96704,
            "byteOffset" : 290112
        },
        {
            "buffer" : 0,
            "byteLength" : 77082,
            "byteOffset" : 386816
        },
        {
            "buffer" : 0,
            "byteLength" : 29436,
            "byteOffset" : 463900
        },
        {
            "buffer" : 0,
            "byteLength" : 29436,
            "byteOffset" : 493336
        },
        {
            "buffer" : 0,
            "byteLength" : 19624,
            "byteOffset" : 522772
        },
        {
            "buffer" : 0,
            "byteLength" : 12252,
            "byteOffset" : 542396
        },
        {
            "buffer" : 0,
            "byteLength" : 15144,
            "byteOffset" : 554648
        },
        {
            "buffer" : 0,
            "byteLength" : 15144,
            "byteOffset" : 569792
        },
        {
            "buffer" : 0,
            "byteLength" : 10096,
            "byteOffset" : 584936
        },
        {
            "buffer" : 0,
            "byteLength" : 4344,
            "byteOffset" : 595032
        },
        {
            "buffer" : 0,
            "byteLength" : 15144,
            "byteOffset" : 599376
        },
        {
            "buffer" : 0,
            "byteLength" : 15144,
            "byteOffset" : 614520
        },
        {
            "buffer" : 0,
            "byteLength" : 10096,
            "byteOffset" : 629664
        },
        {
            "buffer" : 0,
            "byteLength" : 15060,
            "byteOffset" : 639760
        },
        {
            "buffer" : 0,
            "byteLength" : 15060,
            "byteOffset" : 654820
        },
        {
            "buffer" : 0,
            "byteLength" : 10040,
            "byteOffset" : 669880
        },
        {
            "buffer" : 0,
            "byteLength" : 4344,
            "byteOffset" : 679920
        },
        {
            "buffer" : 0,
            "byteLength" : 15060,
            "byteOffset" : 684264
        },
        {
            "buffer" : 0,
            "byteLength" : 15060,
            "byteOffset" : 699324
        },
        {
            "buffer" : 0,
            "byteLength" : 10040,
            "byteOffset" : 714384
        },
        {
            "buffer" : 0,
            "byteLength" : 31020,
            "byteOffset" : 724424
        },
        {
            "buffer" : 0,
            "byteLength" : 31020,
            "byteOffset" : 755444
        },
        {
            "buffer" : 0,
            "byteLength" : 20680,
            "byteOffset" : 786464
        },
        {
            "buffer" : 0,
            "byteLength" : 14952,
            "byteOffset" : 807144
        },
        {
            "buffer" : 0,
            "byteLength" : 31020,
            "byteOffset" : 822096
        },
        {
            "buffer" : 0,
            "byteLength" : 31020,
            "byteOffset" : 853116
        },
        {
            "buffer" : 0,
            "byteLength" : 20680,
            "byteOffset" : 884136
        },
        {
            "buffer" : 0,
            "byteLength" : 30348,
            "byteOffset" : 904816
        },
        {
            "buffer" : 0,
            "byteLength" : 30348,
            "byteOffset" : 935164
        },
        {
            "buffer" : 0,
            "byteLength" : 20232,
            "byteOffset" : 965512
        },
        {
            "buffer" : 0,
            "byteLength" : 14544,
            "byteOffset" : 985744
        },
        {
            "buffer" : 0,
            "byteLength" : 30192,
            "byteOffset" : 1000288
        },
        {
            "buffer" : 0,
            "byteLength" : 30192,
            "byteOffset" : 1030480
        },
        {
            "buffer" : 0,
            "byteLength" : 20128,
            "byteOffset" : 1060672
        },
        {
            "buffer" : 0,
            "byteLength" : 14484,
            "byteOffset" : 1080800
        }
    ],
    "buffers" : [
        {
            "byteLength" : 1095284,
            "uri" : "data:application/octet-stream;base64,"
        }
    ]
}
