{
  "accessors": [
    {
      "bufferView": 2,
      "componentType": 5126,
      "count": 5240,
      "max": [
        0.065084338188171387,
        0.14079055190086365,
        0.23943008482456207
      ],
      "min": [
        -0.065084338188171387,
        -0.1424863338470459,
        -0.15045976638793945
      ],
      "type": "VEC3"
    },
    {
      "bufferView": 2,
      "byteOffset": 62880,
      "componentType": 5126,
      "count": 5240,
      "max": [
        1,
        1,
        1
      ],
      "min": [
        -1,
        -1,
        -1
      ],
      "type": "VEC3"
    },
    {
      "bufferView": 3,
      "componentType": 5126,
      "count": 5240,
      "max": [
        1,
        0.99999994039535522,
        1,
        1
      ],
      "min": [
        -1,
        -1,
        -0.99999821186065674,
        -1
      ],
      "type": "VEC4"
    },
    {
      "bufferView": 1,
      "componentType": 5126,
      "count": 5240,
      "max": [
        0.9949500560760498,
        0.99747467041015625
      ],
      "min": [
        0.0025206732098013163,
        0.0025204468984156847
      ],
      "type": "VEC2"
    },
    {
      "bufferView": 0,
      "componentType": 5125,
      "count": 17052,
      "max": [
        5239
      ],
      "min": [
        0
      ],
      "type": "SCALAR"
    }
  ],
  "asset": {
    "extras": {
      "author": "ikorca (https://sketchfab.com/ikorca)",
      "license": "CC-BY-4.0 (http://creativecommons.org/licenses/by/4.0/)",
      "source": "https://sketchfab.com/3d-models/fuel-tank-midpoly-painted-c82eec8c84c04f10a707d2b3f7e0b727",
      "title": "Fuel Tank MidPoly | Painted"
    },
    "generator": "Sketchfab-9.95.0",
    "version": "2.0"
  },
  "bufferViews": [
    {
      "buffer": 0,
      "byteLength": 68208,
      "byteOffset": 0,
      "name": "floatBufferViews",
      "target": 34963
    },
    {
      "buffer": 0,
      "byteLength": 41920,
      "byteOffset": 68208,
      "byteStride": 8,
      "name": "floatBufferViews",
      "target": 34962
    },
    {
      "buffer": 0,
      "byteLength": 125760,
      "byteOffset": 110128,
      "byteStride": 12,
      "name": "floatBufferViews",
      "target": 34962
    },
    {
      "buffer": 0,
      "byteLength": 83840,
      "byteOffset": 235888,
      "byteStride": 16,
      "name": "floatBufferViews",
      "target": 34962
    }
  ],
  "buffers": [
    {
      "byteLength": 319728,
      "uri": "scene.bin"
    }
  ],
  "images": [
    {
      "uri": "textures/TT_checker_512x512_COLOR_GRID_baseColor.png"
    },
    {
      "uri": "textures/TT_checker_512x512_COLOR_GRID_metallicRoughness.png"
    },
    {
      "uri": "textures/TT_checker_512x512_COLOR_GRID_normal.png"
    }
  ],
  "materials": [
    {
      "doubleSided": true,
      "emissiveFactor": [
        0,
        0,
        0
      ],
      "name": "TT_checker_512x512_COLOR_GRID",
      "normalTexture": {
        "index": 2,
        "scale": 1,
        "texCoord": 0
      },
      "occlusionTexture": {
        "index": 1,
        "strength": 1,
        "texCoord": 0
      },
      "pbrMetallicRoughness": {
        "baseColorFactor": [
          1,
          1,
          1,
          1
        ],
        "baseColorTexture": {
          "index": 0,
          "texCoord": 0
        },
        "metallicFactor": 1,
        "metallicRoughnessTexture": {
          "index": 1,
          "texCoord": 0
        },
        "roughnessFactor": 1
      }
    }
  ],
  "meshes": [
    {
      "name": "Fuel_Taml_Mid_TT_checker_512x512_COLOR_GRID_0",
      "primitives": [
        {
          "attributes": {
            "NORMAL": 1,
            "POSITION": 0,
            "TANGENT": 2,
            "TEXCOORD_0": 3
          },
          "indices": 4,
          "material": 0,
          "mode": 4
        }
      ]
    }
  ],
  "nodes": [
    {
      "children": [
        1
      ],
      "name": "RootNode (gltf orientation matrix)",
      "rotation": [
        -0.70710678118654746,
        -0,
        -0,
        0.70710678118654757
      ]
    },
    {
      "children": [
        2
      ],
      "name": "RootNode (model correction matrix)"
    },
    {
      "children": [
        3
      ],
      "matrix": [
        1,
        0,
        0,
        0,
        0,
        0,
        1,
        0,
        0,
        -1,
        0,
        0,
        0,
        0,
        0,
        1
      ],
      "name": "d7e8a0aaf4ba499faa518015add8970c.fbx"
    },
    {
      "children": [
        4
      ],
      "name": "RootNode"
    },
    {
      "children": [
        5
      ],
      "matrix": [
        100,
        0,
        0,
        0,
        0,
        -1.6292067939183141e-05,
        -99.999999999998678,
        0,
        0,
        99.999999999998678,
        -1.6292067939183141e-05,
        0,
        0,
        0,
        0,
        1
      ],
      "name": "Fuel_Taml_Mid"
    },
    {
      "mesh": 0,
      "name": "Fuel_Taml_Mid_TT_checker_512x512_COLOR_GRID_0"
    }
  ],
  "samplers": [
    {
      "magFilter": 9729,
      "minFilter": 9987,
      "wrapS": 10497,
      "wrapT": 10497
    }
  ],
  "scene": 0,
  "scenes": [
    {
      "name": "OSG_Scene",
      "nodes": [
        0
      ]
    }
  ],
  "textures": [
    {
      "sampler": 0,
      "source": 0
    },
    {
      "sampler": 0,
      "source": 1
    },
    {
      "sampler": 0,
      "source": 2
    }
  ]
}

