{
    "asset" : {
        "generator" : "Khronos glTF Blender I/O v1.4.40",
        "version" : "2.0"
    },
    "scene" : 0,
    "scenes" : [
        {
            "name" : "Scene",
            "nodes" : [
                1
            ]
        }
    ],
    "nodes" : [
        {
            "mesh" : 0,
            "name" : "windmill",
            "translation" : [
                2.332937240600586,
                0.00362659664824605,
                -6.506442546844482
            ]
        },
        {
            "children" : [
                0
            ],
            "mesh" : 1,
            "name" : "blades",
            "rotation" : [
                0.7071068286895752,
                0,
                0,
                0.7071067094802856
            ],
            "scale" : [
                22.63166618347168,
                22.63166618347168,
                22.63166618347168
            ]
        }
    ],
    "materials" : [
        {
            "doubleSided" : true,
            "name" : "Material.002",
            "pbrMetallicRoughness" : {
                "baseColorFactor" : [
                    0.800000011920929,
                    0.800000011920929,
                    0.800000011920929,
                    1
                ],
                "metallicFactor" : 0,
                "roughnessFactor" : 0.5
            }
        },
        {
            "doubleSided" : true,
            "name" : "windmill.001",
            "pbrMetallicRoughness" : {
                "baseColorFactor" : [
                    0.800000011920929,
                    0.800000011920929,
                    0.800000011920929,
                    1
                ],
                "metallicFactor" : 0,
                "roughnessFactor" : 0.5
            }
        }
    ],
    "meshes" : [
        {
            "name" : "windmill",
            "primitives" : [
                {
                    "attributes" : {
                        "POSITION" : 0,
                        "NORMAL" : 1,
                        "TEXCOORD_0" : 2
                    },
                    "indices" : 3,
                    "material" : 0
                }
            ]
        },
        {
            "name" : "blades",
            "primitives" : [
                {
                    "attributes" : {
                        "POSITION" : 4,
                        "NORMAL" : 5,
                        "TEXCOORD_0" : 6
                    },
                    "indices" : 7,
                    "material" : 1
                }
            ]
        }
    ],
    "accessors" : [
        {
            "bufferView" : 0,
            "componentType" : 5126,
            "count" : 758,
            "max" : [
                0.13734674453735352,
                4.141892433166504,
                4.134212493896484
            ],
            "min" : [
                -1.0237542390823364,
                -4.133821487426758,
                -4.14137601852417
            ],
            "type" : "VEC3"
        },
        {
            "bufferView" : 1,
            "componentType" : 5126,
            "count" : 758,
            "type" : "VEC3"
        },
        {
            "bufferView" : 2,
            "componentType" : 5126,
            "count" : 758,
            "type" : "VEC2"
        },
        {
            "bufferView" : 3,
            "componentType" : 5123,
            "count" : 1128,
            "type" : "SCALAR"
        },
        {
            "bufferView" : 4,
            "componentType" : 5126,
            "count" : 4290,
            "max" : [
                1.9384490251541138,
                2.6083478927612305,
                0.6545040011405945
            ],
            "min" : [
                -2.747654914855957,
                -1.9384490251541138,
                -8.89444637298584
            ],
            "type" : "VEC3"
        },
        {
            "bufferView" : 5,
            "componentType" : 5126,
            "count" : 4290,
            "type" : "VEC3"
        },
        {
            "bufferView" : 6,
            "componentType" : 5126,
            "count" : 4290,
            "type" : "VEC2"
        },
        {
            "bufferView" : 7,
            "componentType" : 5123,
            "count" : 7038,
            "type" : "SCALAR"
        }
    ],
    "bufferViews" : [
        {
            "buffer" : 0,
            "byteLength" : 9096,
            "byteOffset" : 0
        },
        {
            "buffer" : 0,
            "byteLength" : 9096,
            "byteOffset" : 9096
        },
        {
            "buffer" : 0,
            "byteLength" : 6064,
            "byteOffset" : 18192
        },
        {
            "buffer" : 0,
            "byteLength" : 2256,
            "byteOffset" : 24256
        },
        {
            "buffer" : 0,
            "byteLength" : 51480,
            "byteOffset" : 26512
        },
        {
            "buffer" : 0,
            "byteLength" : 51480,
            "byteOffset" : 77992
        },
        {
            "buffer" : 0,
            "byteLength" : 34320,
            "byteOffset" : 129472
        },
        {
            "buffer" : 0,
            "byteLength" : 14076,
            "byteOffset" : 163792
        }
    ],
    "buffers" : [
        {
            "byteLength" : 177868,
            "uri" : "data:application/octet-stream;base64,"
        }
    ]
}
